<?xml version="1.0" standalone="no"?><!DOCTYPE svg PUBLIC "-//W3C//DTD SVG 1.1//EN" "http://www.w3.org/Graphics/SVG/1.1/DTD/svg11.dtd"><svg t="1733571688745" class="icon" viewBox="0 0 1501 1024" version="1.1" xmlns="http://www.w3.org/2000/svg" p-id="4266" xmlns:xlink="http://www.w3.org/1999/xlink" width="293.1640625" height="200"><path d="M0 1000.2432h1501.047467V0H0z" fill="#00458F" p-id="4267"></path><path d="M599.6544 0v349.866667H0v300.509866h599.6544v349.934934h300.509867V650.376533h599.6544V349.866667h-599.6544V0z" fill="#FFFFFF" p-id="4268"></path><path d="M0 0v116.258133l1326.626133 884.053334h173.192534v-115.0976L171.895467 0z" fill="#FFFFFF" p-id="4269"></path><path d="M1327.854933 0L0 885.213867v115.0976h173.192533l1326.421334-884.053334V0z" fill="#FFFFFF" p-id="4270"></path><path d="M662.7328 0v412.945067H0v174.421333h662.7328v412.945067h174.353067v-413.013334h662.7328V413.013333h-662.7328V0z" fill="#CC3440" p-id="4271"></path><path d="M1381.034667 0l-480.8704 320.170667v29.696h74.1376L1499.818667 0h-118.784zM0 0v79.0528l405.504 270.813867h120.0128L0 0z m977.988267 650.376533l521.8304 347.477334v-79.121067l-403.114667-268.288h-118.784z m-456.157867 0L0 997.853867v2.4576h113.800533l485.853867-322.696534v-27.2384h-77.824z" fill="#CC3440" p-id="4272"></path></svg>